<svg version="1.1" id="shapeJar" xmlns="http://www.w3.org/2000/svg" xmlns:xlink="http://www.w3.org/1999/xlink" x="0px" y="0px"
	 viewBox="0 0 300 400" fill="none" stroke= "#000000" stroke-width = "12" stroke-miterlimit="10" stroke-linejoin = "round">
<g>
	<path d="M255.8,177.4v152.4H44.3V177.4c0,0,37.3-28.3,19.9-62.4H232C214.6,147.6,255.8,177.4,255.8,177.4z"/>
	<path d="M232,102.5V115H64.2v-12.2C64.2,94.6,70.8,88,79,88h57.4c-2.1-1.9-3.4-4.6-3.4-7.6c0-5.6,4.5-10.1,10.1-10.1
		c5.6,0,10.1,4.5,10.1,10.1c0,3-1.3,5.7-3.4,7.6h67.7C225.5,88,232,94.5,232,102.5z"/>
</g>
</svg>
