<?xml version="1.0" encoding="utf-8"?>
<!-- Generator: Adobe Illustrator 23.0.0, SVG Export Plug-In . SVG Version: 6.00 Build 0)  -->
<svg version="1.1" id="Icons" xmlns="http://www.w3.org/2000/svg" xmlns:xlink="http://www.w3.org/1999/xlink" x="0px" y="0px"
	 viewBox="0 0 512 512" style="enable-background:new 0 0 512 512;" xml:space="preserve">
<style type="text/css">
	.st0{fill:#BEABF4;}
</style>
<g transform="matrix(0.515086 0 0 0.515086 17.9418 17.9418)">
	<path class="st0" d="M282.6,766.4c-19.4,0.1-37.9-7.7-51.6-21.4c-1.2-1.1-1.2-3-0.1-4.1s3-1.2,4.1-0.1c0,0,0,0,0.1,0.1
		c11.8,11.9,27.7,19,44.5,19.6c-1.4-31-24-57.1-54.5-62.9c-1.6-0.3-2.6-1.8-2.3-3.4c0.3-1.6,1.8-2.6,3.4-2.3
		c34.4,6.6,59.2,36.6,59.3,71.6C285.5,765.1,284.2,766.4,282.6,766.4z"/>
	<path class="st0" d="M142.7,766.4c-1.6,0-2.9-1.3-2.9-2.9c-0.1-19.4,7.7-37.9,21.4-51.6c1.1-1.2,3-1.2,4.1-0.1
		c1.2,1.1,1.2,3,0.1,4.1c0,0,0,0-0.1,0.1c-11.9,11.8-19,27.7-19.6,44.5c31-1.4,57.1-24,62.9-54.5c0.3-1.6,1.8-2.6,3.4-2.3
		c1.6,0.3,2.6,1.8,2.3,3.4C207.7,741.5,177.6,766.3,142.7,766.4z"/>
	<path class="st0" d="M199.6,695.2c-0.2,0-0.4,0-0.5,0c-34.4-6.6-59.2-36.6-59.3-71.6c0-1.6,1.3-2.9,2.9-2.9
		c19.4-0.1,37.9,7.7,51.6,21.4c1.2,1.1,1.2,3,0.1,4.1c-1.1,1.2-3,1.2-4.1,0.1c0,0,0,0-0.1-0.1c-11.8-11.9-27.7-19-44.5-19.6
		c1.4,31,24,57.1,54.5,62.9c1.6,0.3,2.6,1.8,2.3,3.4C202.2,694.2,201,695.2,199.6,695.2L199.6,695.2z"/>
	<path class="st0" d="M213.9,683.4c-0.2,0-0.4,0-0.5,0c-1.6-0.3-2.6-1.8-2.3-3.4c0,0,0,0,0,0c6.6-34.4,36.6-59.3,71.6-59.3
		c1.6,0,2.9,1.3,2.9,2.9c0.1,19.4-7.7,37.9-21.4,51.6c-1.1,1.2-3,1.2-4.1,0.1c-1.2-1.1-1.2-3-0.1-4.1c0,0,0,0,0.1-0.1
		c11.9-11.8,19-27.7,19.6-44.5c-31,1.4-57.1,24-62.9,54.5C216.5,682.4,215.3,683.4,213.9,683.4z"/>
	<path class="st0" d="M212.6,795.3c-0.8,0-1.5-0.3-2.1-0.9c-13.7-13.7-21.4-32.2-21.3-51.6c0-1.6,1.3-2.9,2.9-2.9
		c1.6,0,2.9,1.3,2.9,2.9c-0.1,16.8,6.2,33,17.6,45.3c21-22.9,23.4-57.3,6-83c-0.9-1.3-0.6-3.1,0.8-4c1.3-0.9,3.1-0.6,4,0.8
		c19.7,28.9,16.1,67.8-8.7,92.6C214.1,795,213.4,795.3,212.6,795.3z"/>
	<path class="st0" d="M163.2,716.9c-19.4,0.1-37.9-7.6-51.6-21.3c-1.1-1.1-1.1-3,0-4.1c13.7-13.7,32.2-21.4,51.6-21.3
		c1.6,0,2.9,1.3,2.9,2.9s-1.3,2.9-2.9,2.9c-16.8-0.1-33,6.2-45.3,17.6c22.9,21,57.3,23.4,83,6c1.3-0.9,3.1-0.6,4,0.8
		c0.9,1.3,0.6,3.1-0.8,4C192.1,712.5,177.8,716.9,163.2,716.9z"/>
	<path class="st0" d="M204.3,686.3c-1,0-1.9-0.5-2.4-1.3c-19.7-28.9-16-67.8,8.7-92.5c1.1-1.1,3-1.1,4.1,0
		c13.7,13.7,21.4,32.2,21.3,51.6c0,1.6-1.3,2.9-2.9,2.9c-1.6,0-2.9-1.3-2.9-2.9c0.1-16.8-6.2-33-17.6-45.3c-21,22.9-23.4,57.3-6,83
		c0.9,1.3,0.6,3.1-0.8,4C205.4,686.2,204.9,686.3,204.3,686.3z"/>
	<path class="st0" d="M262,716.9c-1.6,0-2.9-1.3-2.9-2.9s1.3-2.9,2.9-2.9c16.8,0.1,33-6.2,45.3-17.6c-22.9-21-57.3-23.4-83-6
		c-1.3,0.9-3.1,0.6-4-0.8c-0.9-1.3-0.6-3.1,0.8-4c28.9-19.7,67.8-16.1,92.6,8.7c1.1,1.1,1.1,3,0,4.1C300,709.3,281.4,717,262,716.9z
		"/>
	<path class="st0" d="M212.6,709.5c-8.8,0-16-7.2-16-16s7.2-16,16-16c8.8,0,16,7.2,16,16C228.6,702.3,221.5,709.5,212.6,709.5z
		 M212.6,683.3c-5.6,0-10.2,4.6-10.2,10.2s4.6,10.2,10.2,10.2s10.2-4.6,10.2-10.2S218.3,683.3,212.6,683.3z"/>
</g>
<g transform="matrix(0.515086 0 0 0.515086 17.9418 17.9418)">
	<path class="st0" d="M470.3,377.3c-19.4,0.1-37.9-7.7-51.6-21.4c-1.2-1.1-1.2-3-0.1-4.1c1.1-1.2,3-1.2,4.1-0.1c0,0,0,0,0.1,0.1
		c11.8,11.9,27.7,19,44.5,19.6c-1.4-31-24-57.1-54.5-62.9c-1.6-0.3-2.6-1.8-2.3-3.4s1.8-2.6,3.4-2.3c34.4,6.6,59.2,36.6,59.3,71.6
		C473.2,376,471.9,377.3,470.3,377.3z"/>
	<path class="st0" d="M330.3,377.3c-1.6,0-2.9-1.3-2.9-2.9c-0.1-19.4,7.7-37.9,21.4-51.6c1.1-1.2,3-1.2,4.1-0.1
		c1.2,1.1,1.2,3,0.1,4.1c0,0,0,0-0.1,0.1c-11.9,11.8-19,27.7-19.6,44.5c31-1.4,57.1-24,62.9-54.5c0.3-1.6,1.8-2.6,3.4-2.3
		s2.6,1.8,2.3,3.4C395.4,352.3,365.3,377.2,330.3,377.3z"/>
	<path class="st0" d="M387.3,306.1c-0.2,0-0.4,0-0.5,0c-34.4-6.6-59.2-36.6-59.3-71.6c0-1.6,1.3-2.9,2.9-2.9
		c19.4-0.1,37.9,7.7,51.6,21.4c1.2,1.1,1.2,3,0.1,4.1c-1.1,1.2-3,1.2-4.1,0.1c0,0,0,0-0.1-0.1c-11.8-11.9-27.7-19-44.5-19.6
		c1.4,31,24,57.1,54.5,62.9c1.6,0.3,2.6,1.8,2.3,3.4C389.9,305.1,388.7,306.1,387.3,306.1L387.3,306.1z"/>
	<path class="st0" d="M401.5,294.3c-0.2,0-0.4,0-0.5,0c-1.6-0.3-2.6-1.8-2.3-3.4c0,0,0,0,0,0c6.6-34.4,36.6-59.3,71.6-59.3
		c1.6,0,2.9,1.3,2.9,2.9c0.1,19.4-7.7,37.9-21.4,51.6c-1.1,1.2-3,1.2-4.1,0.1c-1.2-1.1-1.2-3-0.1-4.1c0,0,0,0,0.1-0.1
		c11.9-11.8,19-27.7,19.6-44.5c-31,1.4-57.1,24-62.9,54.5C404.1,293.3,402.9,294.3,401.5,294.3z"/>
	<path class="st0" d="M400.3,406.2c-0.8,0-1.5-0.3-2.1-0.9c-13.7-13.7-21.4-32.2-21.3-51.6c0-1.6,1.3-2.9,2.9-2.9
		c1.6,0,2.9,1.3,2.9,2.9c-0.1,16.8,6.2,33,17.6,45.3c21-22.9,23.4-57.3,6-83c-0.9-1.3-0.6-3.1,0.8-4c1.3-0.9,3.1-0.6,4,0.8
		c19.7,28.9,16.1,67.8-8.7,92.6C401.8,405.9,401.1,406.2,400.3,406.2z"/>
	<path class="st0" d="M350.9,327.8c-19.4,0.1-37.9-7.6-51.6-21.3c-1.1-1.1-1.1-3,0-4.1c13.7-13.7,32.2-21.4,51.6-21.3
		c1.6,0,2.9,1.3,2.9,2.9c0,1.6-1.3,2.9-2.9,2.9c-16.8-0.1-33,6.2-45.3,17.6c22.9,21,57.3,23.4,83,6c1.3-0.9,3.1-0.6,4,0.8
		c0.9,1.3,0.6,3.1-0.8,4C379.8,323.4,365.5,327.8,350.9,327.8z"/>
	<path class="st0" d="M392,297.2c-1,0-1.9-0.5-2.4-1.3c-19.7-28.9-16-67.8,8.7-92.5c1.1-1.1,3-1.1,4.1,0
		c13.7,13.7,21.4,32.2,21.3,51.6c0,1.6-1.3,2.9-2.9,2.9s-2.9-1.3-2.9-2.9c0.1-16.8-6.2-33-17.6-45.3c-21,22.9-23.4,57.3-6,83
		c0.9,1.3,0.6,3.1-0.8,4C393.1,297.1,392.5,297.2,392,297.2z"/>
	<path class="st0" d="M449.7,327.8c-1.6,0-2.9-1.3-2.9-2.9c0-1.6,1.3-2.9,2.9-2.9c16.8,0.1,33-6.2,45.3-17.6
		c-22.9-21-57.3-23.4-83-6c-1.3,0.9-3.1,0.6-4-0.8c-0.9-1.3-0.6-3.1,0.8-4c28.9-19.7,67.8-16.1,92.6,8.7c1.1,1.1,1.1,3,0,4.1
		C487.6,320.2,469.1,327.8,449.7,327.8z"/>
	<path class="st0" d="M400.3,320.4c-8.8,0-16-7.2-16-16c0-8.8,7.2-16,16-16s16,7.2,16,16C416.3,313.2,409.1,320.4,400.3,320.4z
		 M400.3,294.2c-5.6,0-10.2,4.6-10.2,10.2c0,5.6,4.6,10.2,10.2,10.2c5.6,0,10.2-4.6,10.2-10.2C410.5,298.8,405.9,294.2,400.3,294.2z
		"/>
</g>
<g transform="matrix(0.515086 0 0 0.515086 17.9418 17.9418)">
	<path class="st0" d="M838.9,735c-19.4,0.1-37.9-7.7-51.6-21.4c-1.2-1.1-1.2-3-0.1-4.1c1.1-1.2,3-1.2,4.1-0.1c0,0,0,0,0.1,0.1
		c11.8,11.9,27.7,19,44.5,19.6c-1.4-31-24-57.1-54.5-62.9c-1.6-0.3-2.6-1.8-2.3-3.4s1.8-2.6,3.4-2.3c34.4,6.6,59.2,36.6,59.3,71.6
		C841.8,733.7,840.5,735,838.9,735z"/>
	<path class="st0" d="M698.9,735c-1.6,0-2.9-1.3-2.9-2.9c-0.1-19.4,7.7-37.9,21.4-51.6c1.1-1.2,3-1.2,4.1-0.1c1.2,1.1,1.2,3,0.1,4.1
		c0,0,0,0-0.1,0.1c-11.9,11.8-19,27.7-19.6,44.5c31-1.4,57.1-24,62.9-54.5c0.3-1.6,1.8-2.6,3.4-2.3c1.6,0.3,2.6,1.8,2.3,3.4
		C764,710.1,733.9,735,698.9,735z"/>
	<path class="st0" d="M755.9,663.8c-0.2,0-0.4,0-0.5,0c-34.4-6.6-59.2-36.6-59.3-71.6c0-1.6,1.3-2.9,2.9-2.9
		c19.4-0.1,37.9,7.7,51.6,21.4c1.2,1.1,1.2,3,0.1,4.1s-3,1.2-4.1,0.1c0,0,0,0-0.1-0.1c-11.8-11.9-27.7-19-44.5-19.6
		c1.4,31,24,57.1,54.5,62.9c1.6,0.3,2.6,1.8,2.3,3.4C758.5,662.8,757.3,663.8,755.9,663.8L755.9,663.8z"/>
	<path class="st0" d="M770.1,652c-0.2,0-0.4,0-0.5,0c-1.6-0.3-2.6-1.8-2.3-3.4c0,0,0,0,0,0c6.6-34.4,36.6-59.3,71.6-59.3
		c1.6,0,2.9,1.3,2.9,2.9c0.1,19.4-7.7,37.9-21.4,51.6c-1.1,1.2-3,1.2-4.1,0.1c-1.2-1.1-1.2-3-0.1-4.1c0,0,0,0,0.1-0.1
		c11.9-11.8,19-27.7,19.6-44.5c-31,1.4-57.1,24-62.9,54.5C772.7,651,771.5,652,770.1,652z"/>
	<path class="st0" d="M768.9,764c-0.8,0-1.5-0.3-2.1-0.9c-13.7-13.7-21.4-32.2-21.3-51.6c0-1.6,1.3-2.9,2.9-2.9
		c1.6,0,2.9,1.3,2.9,2.9c-0.1,16.8,6.2,33,17.6,45.3c21-22.9,23.4-57.3,6-83c-0.9-1.3-0.6-3.1,0.8-4c1.3-0.9,3.1-0.6,4,0.8
		c19.7,28.9,16.1,67.8-8.7,92.6C770.4,763.7,769.7,764,768.9,764z"/>
	<path class="st0" d="M719.5,685.5c-19.4,0.1-37.9-7.6-51.6-21.3c-1.1-1.1-1.1-3,0-4.1c13.7-13.7,32.2-21.4,51.6-21.3
		c1.6,0,2.9,1.3,2.9,2.9c0,1.6-1.3,2.9-2.9,2.9c-16.8-0.1-33,6.2-45.3,17.6c22.9,21,57.3,23.4,83,6c1.3-0.9,3.1-0.6,4,0.8
		c0.9,1.3,0.6,3.1-0.8,4C748.4,681.1,734.1,685.6,719.5,685.5z"/>
	<path class="st0" d="M760.6,655c-1,0-1.9-0.5-2.4-1.3c-19.7-28.9-16-67.8,8.7-92.5c1.1-1.1,3-1.1,4.1,0
		c13.7,13.7,21.4,32.2,21.3,51.6c0,1.6-1.3,2.9-2.9,2.9c-1.6,0-2.9-1.3-2.9-2.9c0.1-16.8-6.2-33-17.6-45.3c-21,22.9-23.4,57.3-6,83
		c0.9,1.3,0.6,3.1-0.8,4C761.7,654.8,761.1,655,760.6,655z"/>
	<path class="st0" d="M818.3,685.5c-1.6,0-2.9-1.3-2.9-2.9c0-1.6,1.3-2.9,2.9-2.9c16.8,0.1,33-6.2,45.3-17.6
		c-22.9-21-57.3-23.4-83-6c-1.3,0.9-3.1,0.6-4-0.8s-0.6-3.1,0.8-4c28.9-19.7,67.8-16.1,92.6,8.7c1.1,1.1,1.1,3,0,4.1
		C856.3,677.9,837.7,685.6,818.3,685.5z"/>
	<path class="st0" d="M768.9,678.1c-8.8,0-16-7.2-16-16c0-8.8,7.2-16,16-16s16,7.2,16,16C784.9,671,777.7,678.1,768.9,678.1z
		 M768.9,651.9c-5.6,0-10.2,4.6-10.2,10.2c0,5.6,4.6,10.2,10.2,10.2s10.2-4.6,10.2-10.2C779.1,656.5,774.5,651.9,768.9,651.9z"/>
</g>
</svg>
