<?xml version="1.0" encoding="utf-8"?>
<!-- Generator: Adobe Illustrator 23.0.0, SVG Export Plug-In . SVG Version: 6.00 Build 0)  -->
<svg version="1.1" id="Capa_1" xmlns="http://www.w3.org/2000/svg" xmlns:xlink="http://www.w3.org/1999/xlink" x="0px" y="0px"
	 viewBox="0 0 300 300" style="enable-background:new 0 0 300 300;" xml:space="preserve">
<style type="text/css">
	.st0{fill:#BEB16F;}
</style>
<g>
	<g>
		<path class="st0" d="M66.8,233c4.6,0,8.3,3.7,8.3,8.3c0,0.6,0.5,1,1,1s1-0.5,1-1c0-4.6,3.7-8.3,8.3-8.3c0.6,0,1-0.5,1-1
			s-0.5-1-1-1c-4.6,0-8.3-3.7-8.3-8.3c0-0.6-0.5-1-1-1s-1,0.5-1,1c0,4.6-3.7,8.3-8.3,8.3c-0.6,0-1,0.5-1,1S66.2,233,66.8,233z
			 M76.2,227.2c1,2.1,2.7,3.8,4.8,4.8c-2.1,1-3.8,2.7-4.8,4.8c-1-2.1-2.7-3.8-4.8-4.8C73.4,231,75.1,229.3,76.2,227.2z"/>
		<path class="st0" d="M34.3,201.8c2.9,0,5.2,2.3,5.2,5.2c0,0.6,0.5,1,1,1c0.6,0,1-0.5,1-1c0-2.9,2.3-5.2,5.2-5.2c0.6,0,1-0.5,1-1
			s-0.5-1-1-1c-2.9,0-5.2-2.3-5.2-5.2c0-0.6-0.5-1-1-1c-0.6,0-1,0.5-1,1c0,2.9-2.3,5.2-5.2,5.2c-0.6,0-1,0.5-1,1
			S33.7,201.8,34.3,201.8z M40.5,198.2c0.6,1,1.5,1.9,2.5,2.5c-1,0.6-1.9,1.5-2.5,2.5c-0.6-1-1.5-1.9-2.5-2.5
			C39,200.1,39.9,199.2,40.5,198.2z"/>
		<circle class="st0" cx="62.3" cy="221.9" r="1"/>
		<path class="st0" d="M65.1,219.5c0.3,0.5,0.9,0.7,1.4,0.4c2.7-1.6,5.8-2.5,9-2.5c0.6,0,1-0.5,1-1c0-0.6-0.5-1-1-1
			c-9.8,0-17.7-7.9-17.7-17.7c0-0.6-0.5-1-1-1c-0.6,0-1,0.5-1,1c0,9.8-7.9,17.7-17.7,17.7c-0.6,0-1,0.5-1,1c0,0.6,0.5,1,1,1
			c9.8,0,17.7,7.9,17.7,17.7c0,0.6,0.5,1,1,1c0.6,0,1-0.5,1-1c0-3.2,0.9-6.3,2.5-9c0.3-0.5,0.1-1.1-0.4-1.4
			c-0.5-0.3-1.1-0.1-1.4,0.4c-0.7,1.2-1.3,2.4-1.7,3.7c-2-5.8-6.6-10.4-12.4-12.4c5.8-2,10.4-6.6,12.4-12.4
			c2,5.8,6.6,10.4,12.4,12.4c-1.3,0.4-2.6,1-3.7,1.7C64.9,218.4,64.8,219,65.1,219.5L65.1,219.5z"/>
	</g>
</g>
<g>
	<g>
		<path class="st0" d="M104.9,116c4.6,0,8.3,3.7,8.3,8.3c0,0.6,0.5,1,1,1c0.6,0,1-0.5,1-1c0-4.6,3.7-8.3,8.3-8.3c0.6,0,1-0.5,1-1
			c0-0.6-0.5-1-1-1c-4.6,0-8.3-3.7-8.3-8.3c0-0.6-0.5-1-1-1c-0.6,0-1,0.5-1,1c0,4.6-3.7,8.3-8.3,8.3c-0.6,0-1,0.5-1,1
			C103.8,115.5,104.3,116,104.9,116z M114.3,110.1c1,2.1,2.7,3.8,4.8,4.8c-2.1,1-3.8,2.7-4.8,4.8c-1-2.1-2.7-3.8-4.8-4.8
			C111.5,113.9,113.2,112.2,114.3,110.1z"/>
		<path class="st0" d="M72.4,84.7c2.9,0,5.2,2.3,5.2,5.2c0,0.6,0.5,1,1,1s1-0.5,1-1c0-2.9,2.3-5.2,5.2-5.2c0.6,0,1-0.5,1-1
			c0-0.6-0.5-1-1-1c-2.9,0-5.2-2.3-5.2-5.2c0-0.6-0.5-1-1-1s-1,0.5-1,1c0,2.9-2.3,5.2-5.2,5.2c-0.6,0-1,0.5-1,1
			C71.3,84.2,71.8,84.7,72.4,84.7z M78.6,81.1c0.6,1,1.5,1.9,2.5,2.5c-1,0.6-1.9,1.5-2.5,2.5c-0.6-1-1.5-1.9-2.5-2.5
			C77.1,83,78,82.2,78.6,81.1z"/>
		<circle class="st0" cx="100.4" cy="104.8" r="1"/>
		<path class="st0" d="M103.2,102.4c0.3,0.5,0.9,0.7,1.4,0.4c2.7-1.6,5.8-2.5,9-2.5c0.6,0,1-0.5,1-1c0-0.6-0.5-1-1-1
			c-9.8,0-17.7-7.9-17.7-17.7c0-0.6-0.5-1-1-1c-0.6,0-1,0.5-1,1c0,9.8-7.9,17.7-17.7,17.7c-0.6,0-1,0.5-1,1c0,0.6,0.5,1,1,1
			c9.8,0,17.7,7.9,17.7,17.7c0,0.6,0.5,1,1,1c0.6,0,1-0.5,1-1c0-3.2,0.9-6.3,2.5-9c0.3-0.5,0.1-1.1-0.4-1.4
			c-0.5-0.3-1.1-0.1-1.4,0.4c-0.7,1.2-1.3,2.4-1.7,3.7c-2-5.8-6.6-10.4-12.4-12.4c5.8-2,10.4-6.6,12.4-12.4
			c2,5.8,6.6,10.4,12.4,12.4c-1.3,0.4-2.6,1-3.7,1.7C103.1,101.3,102.9,101.9,103.2,102.4L103.2,102.4z"/>
	</g>
</g>
<g>
	<g>
		<path class="st0" d="M209.7,231.5c4.6,0,8.3,3.7,8.3,8.3c0,0.6,0.5,1,1,1s1-0.5,1-1c0-4.6,3.7-8.3,8.3-8.3c0.6,0,1-0.5,1-1
			c0-0.6-0.5-1-1-1c-4.6,0-8.3-3.7-8.3-8.3c0-0.6-0.5-1-1-1s-1,0.5-1,1c0,4.6-3.7,8.3-8.3,8.3c-0.6,0-1,0.5-1,1
			C208.6,231,209.1,231.5,209.7,231.5z M219,225.6c1,2.1,2.7,3.8,4.8,4.8c-2.1,1-3.8,2.7-4.8,4.8c-1-2.1-2.7-3.8-4.8-4.8
			C216.3,229.4,218,227.7,219,225.6z"/>
		<path class="st0" d="M177.1,200.2c2.9,0,5.2,2.3,5.2,5.2c0,0.6,0.5,1,1,1s1-0.5,1-1c0-2.9,2.3-5.2,5.2-5.2c0.6,0,1-0.5,1-1
			c0-0.6-0.5-1-1-1c-2.9,0-5.2-2.3-5.2-5.2c0-0.6-0.5-1-1-1s-1,0.5-1,1c0,2.9-2.3,5.2-5.2,5.2c-0.6,0-1,0.5-1,1
			C176.1,199.7,176.6,200.2,177.1,200.2z M183.4,196.7c0.6,1,1.5,1.9,2.5,2.5c-1,0.6-1.9,1.5-2.5,2.5c-0.6-1-1.5-1.9-2.5-2.5
			C181.9,198.5,182.8,197.7,183.4,196.7z"/>
		<circle class="st0" cx="205.2" cy="220.3" r="1"/>
		<path class="st0" d="M208,217.9c0.3,0.5,0.9,0.7,1.4,0.4c2.7-1.6,5.8-2.5,9-2.5c0.6,0,1-0.5,1-1s-0.5-1-1-1
			c-9.8,0-17.7-7.9-17.7-17.7c0-0.6-0.5-1-1-1s-1,0.5-1,1c0,9.8-7.9,17.7-17.7,17.7c-0.6,0-1,0.5-1,1s0.5,1,1,1
			c9.8,0,17.7,7.9,17.7,17.7c0,0.6,0.5,1,1,1s1-0.5,1-1c0-3.2,0.9-6.3,2.5-9c0.3-0.5,0.1-1.1-0.4-1.4c-0.5-0.3-1.1-0.1-1.4,0.4
			c-0.7,1.2-1.3,2.4-1.7,3.7c-2-5.8-6.6-10.4-12.4-12.4c5.8-2,10.4-6.6,12.4-12.4c2,5.8,6.6,10.4,12.4,12.4c-1.3,0.4-2.6,1-3.7,1.7
			C207.8,216.8,207.7,217.4,208,217.9L208,217.9z"/>
	</g>
</g>
<g>
	<g>
		<path class="st0" d="M242.2,106.1c4.6,0,8.3,3.7,8.3,8.3c0,0.6,0.5,1,1,1s1-0.5,1-1c0-4.6,3.7-8.3,8.3-8.3c0.6,0,1-0.5,1-1
			c0-0.6-0.5-1-1-1c-4.6,0-8.3-3.7-8.3-8.3c0-0.6-0.5-1-1-1s-1,0.5-1,1c0,4.6-3.7,8.3-8.3,8.3c-0.6,0-1,0.5-1,1
			C241.1,105.6,241.6,106.1,242.2,106.1z M251.6,100.2c1,2.1,2.7,3.8,4.8,4.8c-2.1,1-3.8,2.7-4.8,4.8c-1-2.1-2.7-3.8-4.8-4.8
			C248.8,104,250.5,102.3,251.6,100.2z"/>
		<path class="st0" d="M209.7,74.8c2.9,0,5.2,2.3,5.2,5.2c0,0.6,0.5,1,1,1s1-0.5,1-1c0-2.9,2.3-5.2,5.2-5.2c0.6,0,1-0.5,1-1
			c0-0.6-0.5-1-1-1c-2.9,0-5.2-2.3-5.2-5.2c0-0.6-0.5-1-1-1s-1,0.5-1,1c0,2.9-2.3,5.2-5.2,5.2c-0.6,0-1,0.5-1,1
			C208.6,74.3,209.1,74.8,209.7,74.8z M215.9,71.2c0.6,1,1.5,1.9,2.5,2.5c-1,0.6-1.9,1.5-2.5,2.5c-0.6-1-1.5-1.9-2.5-2.5
			C214.4,73.1,215.3,72.3,215.9,71.2z"/>
		<circle class="st0" cx="237.7" cy="94.9" r="1"/>
		<path class="st0" d="M240.5,92.5c0.3,0.5,0.9,0.7,1.4,0.4c2.7-1.6,5.8-2.5,9-2.5c0.6,0,1-0.5,1-1c0-0.6-0.5-1-1-1
			c-9.8,0-17.7-7.9-17.7-17.7c0-0.6-0.5-1-1-1s-1,0.5-1,1c0,9.8-7.9,17.7-17.7,17.7c-0.6,0-1,0.5-1,1c0,0.6,0.5,1,1,1
			c9.8,0,17.7,7.9,17.7,17.7c0,0.6,0.5,1,1,1s1-0.5,1-1c0-3.2,0.9-6.3,2.5-9c0.3-0.5,0.1-1.1-0.4-1.4c-0.5-0.3-1.1-0.1-1.4,0.4
			c-0.7,1.2-1.3,2.4-1.7,3.7c-2-5.8-6.6-10.4-12.4-12.4c5.8-2,10.4-6.6,12.4-12.4c2,5.8,6.6,10.4,12.4,12.4c-1.3,0.4-2.6,1-3.7,1.7
			C240.4,91.4,240.2,92,240.5,92.5L240.5,92.5z"/>
	</g>
</g>
</svg>
